<svg xmlns="http://www.w3.org/2000/svg" viewBox="0 0 487.94 365.79">
  <defs>
    <style>
      .be17da65-9591-48e3-b6a4-d03b89ee1dd1 {
        fill: none;
        stroke: #fde8e2;
        stroke-miterlimit: 10;
        stroke-width: 5.18px;
      }
    </style>
  </defs>
  <g id="b885881d-ef4d-41b5-acee-4f7a8f613df3" data-name="Layer 2">
    <g id="edb2c7cd-bc1b-4f23-8492-99959c074ffd" data-name="Layer 1">
      <g>
        <path class="be17da65-9591-48e3-b6a4-d03b89ee1dd1" d="M2.72,205.94c0-46.8.12-93.61-.13-140.41,0-7.17,3-11.35,9-14.26,3.82-1.88,7.94-2.75,12-3.7,2.06-.49,2.69-1.41,2.65-3.5-.13-7.12.19-14.25-.15-21.36-.16-3.31,1.08-4.63,4-5.62A267.27,267.27,0,0,1,87.3,4.17a239.52,239.52,0,0,1,64.24,1.3c33.28,5.31,63.3,18.13,89.61,39.38,4.88,3.95,5,4,9.88.09A184.68,184.68,0,0,1,320.92,9.63c24.44-6.45,49.34-8.19,74.48-6.34A261.72,261.72,0,0,1,461,16.65c3.95,1.34,5.69,3,5.42,7.41-.46,7.22,0,14.5-.18,21.75-.05,2.49.47,4,3.21,4.27a12.07,12.07,0,0,1,3.42.89c11.43,4.57,12.51,6.79,12.49,16.3q-.19,140.42,0,280.82c0,3.54-.8,4.5-4.43,4.49q-99.68-.18-199.34-.14a12.74,12.74,0,0,0-8,2.48c-15.28,11-38.62,11-53.78,0a12.06,12.06,0,0,0-7.59-2.49q-102.65.1-205.28.14c-3.42,0-4.29-.75-4.28-4.25Q2.83,277.13,2.72,205.94Zm232.85,20.77v-5.39q0-79.68,0-159.36a6.36,6.36,0,0,0-2.52-5.69c-29.43-23.74-63.31-36.22-100.69-39.13-30.22-2.36-59.92,1.41-89,10.16-2.57.78-3.46,1.84-3.45,4.62q.12,137,0,274c0,3.26.56,4.11,3.84,2.84,13.24-5.11,27.07-7.64,41.14-8.89,29-2.6,57.59.95,85.9,7a418,418,0,0,1,69.27,21.26c3.24,1.31,3.84.81,3.83-2.61-.11-34.66-.06-69.33-.06-104v-4Zm216.6,83.46v-2.54q0-138,.06-276c0-2.69-1-3.59-3.35-4.27a280.53,280.53,0,0,0-41.25-8.77c-27.19-3.54-54.19-2.63-80.82,4a175.26,175.26,0,0,0-67.62,33.72c-2.16,1.73-2.63,3.54-2.63,6.05q.07,79.5,0,159v3.89l-7.84-6.2V329.19c7.48-2.95,14.6-6,21.86-8.59a379,379,0,0,1,84.56-20.45,231,231,0,0,1,66.53,1.37A159,159,0,0,1,452.17,310.17Z"/>
        <path class="be17da65-9591-48e3-b6a4-d03b89ee1dd1" d="M381.35,184.62c-32.66.18-62.93,7.27-91.87,20.23-7.73,3.47-7.59,3.53-3.48,10.81,1.25,2.22,2.27,2.52,4.56,1.39a203.63,203.63,0,0,1,45.32-15.71c27.05-6.18,54.24-7.15,81.51-1.38,8.11,1.71,8,1.76,10.1-6,.65-2.4.26-3.36-2.4-4A204.24,204.24,0,0,0,381.35,184.62Zm-3-18.76c15,.07,27.17,1.22,39.19,3.8,8.26,1.78,8.22,1.73,10.06-6.61.43-1.93.1-2.69-2-3.19a192,192,0,0,0-25.25-4.43c-39.21-3.89-76.48,3.51-112.16,19.73-6.29,2.86-6.05,2.84-2.93,9,1.69,3.34,3.13,3.64,6.53,2C320.09,172.91,349.83,166,378.39,165.86Zm3.91-74A222.53,222.53,0,0,0,289.63,112c-7.87,3.56-7.73,3.57-3.51,11,1.23,2.16,2.26,2.23,4.25,1.26a210.75,210.75,0,0,1,64.33-19.23c20.9-2.82,41.77-2.56,62.45,2.06,8.41,1.88,8.32,2,10.41-6.22.59-2.32.08-3.12-2.32-3.7A194.41,194.41,0,0,0,382.3,91.86ZM379.85,247c-31.53.15-61.5,7.32-90.22,20.1-8,3.55-7.88,3.51-3.5,11.07,1.21,2.09,2.17,2.33,4.29,1.25A175.82,175.82,0,0,1,316.37,269c33.06-10.63,66.62-14,100.88-6.86,8.68,1.8,8.65,1.77,10.39-6.53.39-1.88.19-2.66-2-3.18A194.58,194.58,0,0,0,379.85,247ZM427.74,68c.22-1.76.23-1.81-2.4-2.45a183.59,183.59,0,0,0-35.51-5.23c-34.86-1.53-68,5.51-99.75,19.76-9.91,4.45-8.51,2.15-3.77,11.46,1.12,2.2,2.22,1.87,4,1,4.76-2.23,9.53-4.48,14.44-6.34,36.59-13.87,74.05-19,112.78-10.86,8.21,1.71,8.23,1.64,10.06-6.6C427.66,68.56,427.69,68.3,427.74,68Zm0,155.7c.19-1.64.2-1.69-1.69-2.21a147.38,147.38,0,0,0-24.82-4.59c-38.91-3.88-76,3-111.56,19-8,3.57-7.89,3.55-3.54,11,1.2,2.07,2.09,2.3,4.25,1.25A199.38,199.38,0,0,1,319,237c32.41-10,65.2-13,98.63-5.87,8.56,1.84,8.58,1.74,10.07-7C427.68,224,427.71,223.87,427.73,223.74Zm-46.54-102A222.47,222.47,0,0,0,289.39,142c-7.66,3.45-7.55,3.47-3.31,10.81,1.14,2,2,2.46,4.21,1.38a195.86,195.86,0,0,1,28.95-11.32c32.29-10,65-12.92,98.26-5.83,8.26,1.76,8.2,1.75,10.1-6.47.5-2.16,0-2.82-2.21-3.38A188.27,188.27,0,0,0,381.19,121.71Z"/>
        <path class="be17da65-9591-48e3-b6a4-d03b89ee1dd1" d="M109.81,195.33c-10.6.4-23,1.46-35.2,4.66-3.33.88-4.76.5-5.6-3.18-1.59-7-1.82-6.81,5-8.37,36.4-8.25,72.13-5,107.42,6.1A221.19,221.19,0,0,1,210.39,206c2.29,1.1,3.17,1.92,1.58,4.56-4.13,6.87-3.91,6.8-11.41,3.49A214.32,214.32,0,0,0,109.81,195.33Z"/>
        <path class="be17da65-9591-48e3-b6a4-d03b89ee1dd1" d="M213.13,145.37c-1.6,2.79-3.06,5.75-4.94,8.43-.86,1.22-2.13-.21-3.09-.66a217.85,217.85,0,0,0-54.62-17.53c-25.69-4.72-51.32-4.65-76.77,1.59-3,.75-3.76,0-4.46-2.75-2-7.65-2.08-7.54,5.36-9.15,41-8.87,80.8-4,119.66,10.83,5.64,2.15,11.1,4.76,16.61,7.21C211.77,143.74,213,144,213.13,145.37Z"/>
        <path class="be17da65-9591-48e3-b6a4-d03b89ee1dd1" d="M110.79,91c37.5.14,68.43,7.77,98,21.39,4.82,2.23,4.79,2.28,2.23,6.84-3.07,5.44-3,5.37-8.78,2.76-33.12-15-67.78-21.74-104.13-18.83A124.1,124.1,0,0,0,74,107.3c-2.55.73-3.94.57-4.72-2.53-2-7.72-2.16-7.75,5.58-9.38C88.29,92.56,101.86,90.88,110.79,91Z"/>
        <path class="be17da65-9591-48e3-b6a4-d03b89ee1dd1" d="M115.84,215c33.3.34,64.43,8,94.16,21.89,3,1.41,3.35,2.63,1.6,5.45-3.84,6.19-3.64,6.2-10.27,3.24-33.68-15-68.82-21.72-105.69-18.21a150.61,150.61,0,0,0-22.88,4.15c-2.12.54-2.65,0-3.22-1.95-2.39-8.3-2.48-8.33,6-10.26A184.85,184.85,0,0,1,115.84,215Z"/>
        <path class="be17da65-9591-48e3-b6a4-d03b89ee1dd1" d="M213,178.29a92.55,92.55,0,0,1-4.74,8.1c-1.05,1.46-2.44-.14-3.48-.65a207.79,207.79,0,0,0-47.27-16.06c-28-6.14-56.11-6.59-84.12.2-2.51.61-3.37.25-4-2.32-2.07-7.76-2.21-7.78,5.52-9.53,25.94-5.89,52-5.76,78-1a225.66,225.66,0,0,1,56.79,18.35C212.94,177,213.13,177.2,213,178.29Z"/>
        <path class="be17da65-9591-48e3-b6a4-d03b89ee1dd1" d="M110.32,59.34c38.34.11,69.31,7.89,99,21.5,3.74,1.72,4.07,3.15,1.89,6.53-3.5,5.42-3.23,5.51-9.17,2.84-33.51-15-68.45-22.06-105.21-18.61a159.93,159.93,0,0,0-24.09,4.18c-2.16.55-2.65-.12-3.21-2-2.47-8.32-2.54-8.34,6-10.24C88.81,60.59,102.27,59.2,110.32,59.34Z"/>
        <path class="be17da65-9591-48e3-b6a4-d03b89ee1dd1" d="M112.44,246.13c36.17.19,67.27,8,97.05,21.65,3.49,1.6,3.92,3,1.81,6.28-3.58,5.57-3.34,5.72-9.47,2.93a211.44,211.44,0,0,0-91-19.45,160.23,160.23,0,0,0-37.47,5c-2.59.65-3.35,0-4-2.44-2-7.69-2.1-7.54,5.68-9.48a125.63,125.63,0,0,1,14.34-2.68A188.56,188.56,0,0,1,112.44,246.13Z"/>
        <path class="be17da65-9591-48e3-b6a4-d03b89ee1dd1" d="M381.35,184.62A204.24,204.24,0,0,1,425.09,190c2.66.61,3.05,1.57,2.4,4-2.07,7.75-2,7.7-10.1,6-27.27-5.77-54.46-4.8-81.51,1.38a203.63,203.63,0,0,0-45.32,15.71c-2.29,1.13-3.31.83-4.56-1.39-4.11-7.28-4.25-7.34,3.48-10.81C318.42,191.89,348.69,184.8,381.35,184.62Z"/>
        <path class="be17da65-9591-48e3-b6a4-d03b89ee1dd1" d="M378.39,165.86c-28.56.11-58.3,7-86.55,20.35-3.4,1.6-4.84,1.3-6.53-2-3.12-6.17-3.36-6.15,2.93-9,35.68-16.22,72.95-23.62,112.16-19.73a192,192,0,0,1,25.25,4.43c2.09.5,2.42,1.26,2,3.19-1.84,8.34-1.8,8.39-10.06,6.61C405.56,167.08,393.4,165.93,378.39,165.86Z"/>
        <path class="be17da65-9591-48e3-b6a4-d03b89ee1dd1" d="M382.3,91.86a194.41,194.41,0,0,1,42.94,5.36c2.4.58,2.91,1.38,2.32,3.7-2.09,8.19-2,8.1-10.41,6.22-20.68-4.62-41.55-4.88-62.45-2.06a210.75,210.75,0,0,0-64.33,19.23c-2,1-3,.9-4.25-1.26-4.22-7.45-4.36-7.46,3.51-11A222.53,222.53,0,0,1,382.3,91.86Z"/>
        <path class="be17da65-9591-48e3-b6a4-d03b89ee1dd1" d="M379.85,247a194.58,194.58,0,0,1,45.78,5.46c2.2.52,2.4,1.3,2,3.18-1.74,8.3-1.71,8.33-10.39,6.53C383,255,349.43,258.37,316.37,269a175.82,175.82,0,0,0-25.95,10.39c-2.12,1.08-3.08.84-4.29-1.25-4.38-7.56-4.47-7.52,3.5-11.07C318.35,254.29,348.32,247.12,379.85,247Z"/>
        <path class="be17da65-9591-48e3-b6a4-d03b89ee1dd1" d="M427.74,68c-.05.26-.08.52-.14.78-1.83,8.24-1.85,8.31-10.06,6.6-38.73-8.1-76.19-3-112.78,10.86-4.91,1.86-9.68,4.11-14.44,6.34-1.79.83-2.89,1.16-4-1-4.74-9.31-6.14-7,3.77-11.46C321.79,65.87,355,58.83,389.83,60.36a183.59,183.59,0,0,1,35.51,5.23C428,66.23,428,66.28,427.74,68Z"/>
        <path class="be17da65-9591-48e3-b6a4-d03b89ee1dd1" d="M427.73,223.74c0,.13-.05.26-.07.39-1.49,8.73-1.51,8.83-10.07,7C384.16,224,351.37,227,319,237a199.38,199.38,0,0,0-28.59,11.19c-2.16,1-3.05.82-4.25-1.25-4.35-7.47-4.44-7.45,3.54-11,35.56-15.93,72.65-22.85,111.56-19A147.38,147.38,0,0,1,426,221.53C427.93,222.05,427.92,222.1,427.73,223.74Z"/>
        <path class="be17da65-9591-48e3-b6a4-d03b89ee1dd1" d="M381.19,121.71a188.27,188.27,0,0,1,44.2,5.43c2.21.56,2.71,1.22,2.21,3.38-1.9,8.22-1.84,8.23-10.1,6.47-33.29-7.09-66-4.14-98.26,5.83a195.86,195.86,0,0,0-28.95,11.32c-2.21,1.08-3.07.6-4.21-1.38-4.24-7.34-4.35-7.36,3.31-10.81A222.47,222.47,0,0,1,381.19,121.71Z"/>
      </g>
    </g>
  </g>
</svg>
