<svg xmlns="http://www.w3.org/2000/svg" viewBox="0 0 374.17 415.51">
  <defs>
    <style>
      .a3cb5729-018d-44c5-a095-1400a2f06931 {
        fill: none;
        stroke: #f8bd9e;
        stroke-miterlimit: 10;
        stroke-width: 6px;
      }
    </style>
  </defs>
  <g id="aee2dc22-effd-4f42-b98e-7242d8c4c0f5" data-name="Layer 2">
    <g id="fc7c66e8-7c2a-4d4c-b865-de4adc065f1d" data-name="Layer 1">
      <g>
        <path class="a3cb5729-018d-44c5-a095-1400a2f06931" d="M241.54,3c3.84,1.65,8.07,1.85,12,3.45A59.29,59.29,0,0,1,284.5,35a8.79,8.79,0,0,0,5.63,4.88C309.49,46,323.27,64.71,323,85c-.06,4.53,1.16,7,5.16,9.33,22,13.1,32.51,43.06,23.91,67.24-.78,2.18-.8,3.59,1.12,5.44,17.48,16.8,21.71,37,14.82,59.87a45.36,45.36,0,0,1-5.51,12.3c-1.35,2-1.26,3.69.08,5.77A54.82,54.82,0,0,1,357,311c-1.69,1.9-2.52,3.52-2.21,6.29,3.59,31.93-22.07,62-53.93,63.16-2.84.11-3.52,1.91-4.67,3.55C283,403,264.85,412.93,241.75,412.46c-21.93-.44-38.61-11.12-51.09-28.8a21.74,21.74,0,0,1-1.88-3.05c-1.13-2.33-2-2.28-3.29,0a67.9,67.9,0,0,1-19.73,21.12c-22,15.72-54.86,14.11-75.21-3.75a66.53,66.53,0,0,1-13.36-15.25,4,4,0,0,0-3.8-2.17c-25.64-.65-46.76-20.59-52.61-44.23a53.15,53.15,0,0,1-1.2-20.59c.26-1.79-.59-2.7-1.57-3.79C.74,292.65-1.8,267.38,11.51,245.26c1.58-2.62,1.11-4.33-.17-6.79C0,216.69-.42,195.3,14.08,174.6a14.23,14.23,0,0,1,3.06-3.66c5.5-3.79,5.43-8.2,3.77-14.4-6.33-23.6,5.19-50.6,26.2-62.94,2.9-1.7,4.23-3.34,4.16-7-.41-22.09,12.93-40.39,34-47.16a5.2,5.2,0,0,0,3.58-2.69c8.71-17.41,22.19-28.86,41.49-33,.3-.07.52-.49.78-.75h15.2c.14.21.26.57.43.6,16.76,2.67,29.44,11.6,38.67,25.57,1.91,2.89,2.45,1.36,3.59-.35A57.48,57.48,0,0,1,219.75,5.28c2.71-.89,5.71-.65,8.19-2.28Zm-62.4,300.69v-3.8q0-72.78,0-145.56c0-11.32-5.15-17.08-16.48-18.55-4.65-.6-7.64-3.88-7.5-8.26s3.57-7.59,8.45-7.72c5.42-.15,10.37,1.62,15.53,4v-4.21c0-18.53,0-37.06,0-55.59a48.71,48.71,0,0,0-6.47-24.72c-7.84-13.86-24-22.11-39.27-19.57-11.5,1.9-19.86,8.62-26.61,18.06,1.52.44,2.53.79,3.56,1,8.44,1.76,15.56,6,21.82,11.74,3.7,3.41,4.24,8.22,1.36,11.7s-7.37,3.75-11.38.87c-1.41-1-2.7-2.17-4.07-3.23a29.6,29.6,0,0,0-19.71-6.31C81.1,54.39,69,66.92,67.49,82.4c-.29,3,.1,3.47,3,3.21,33.24-3,60.42,25.89,60.61,57.08,0,5.49-3.1,9-7.87,9.1s-7.82-3.18-8.13-8.47c-.61-10.26-3.9-19.5-10.66-27.3-8.25-9.53-18.56-15.36-31.42-14.38-23,1.75-40.63,24.49-37.33,47.4a48.58,48.58,0,0,0,4.64,13.89c2.32,4.95,1.41,8.13-2.88,11.51-1,.82-2.17,1.54-3.22,2.36a40,40,0,0,0-13.39,42.27c4.93,17,19.88,30.69,38.47,31.18a7.75,7.75,0,0,1,7.79,8.34c-.19,4.33-3.51,7.42-8.17,7.61a43.35,43.35,0,0,1-11.45-1.31C39.22,263,32,258.9,25,253.78c-1,2.06-2,3.79-2.71,5.62-6.3,15.94-2.59,32.24,10.13,44,3.3,3,4.9,6.25,3.84,10.93a39.49,39.49,0,0,0,1.95,23.1C44.89,355,60.59,365.22,79.15,364a8.28,8.28,0,0,1,7.94,3.63c1.18,1.76,2.09,3.7,3.22,5.5,9.86,15.74,24.28,24.07,42.65,23.21,31.11-1.46,52.84-33.37,44.17-63.38-4.86-16.81-20.39-33.78-45.63-34.73-5.22-.2-8.47-3.55-8.34-8.23s3.62-7.71,8.81-7.77a60.33,60.33,0,0,1,22.17,4.24C163.58,290,171.59,295.76,179.14,303.69Zm16.08-179.91c5.12-2.33,10.18-4.21,15.74-4,4.64.19,8,3.28,8.17,7.61s-2.78,7.75-7.39,8.37c-11.59,1.55-16.59,7.2-16.59,18.83q0,72.39,0,144.78v3.43l1,.6a24.88,24.88,0,0,1,2.35-3c12.14-11.58,26.54-17.84,43.38-18.2,5.55-.12,9.13,2.93,9.31,7.65s-3.13,7.95-8.64,8.38a61.6,61.6,0,0,0-9.11,1.11c-29.44,6.78-45.37,36.09-34.95,64.41,9.07,24.62,35.83,40.28,63,28.9a47.79,47.79,0,0,0,24.12-22.24c3.26-6,5.28-7,11.86-6.09a26.49,26.49,0,0,0,11-1.12,42.38,42.38,0,0,0,29.81-47.16c-1-5.84.34-9.72,4.62-13.69a39,39,0,0,0,8.33-45.07c-1.54-3.2-2.67-3.23-5.32-1.29-8.79,6.42-18.61,10.1-29.61,10.18-5.5,0-9-3.08-9.1-7.86s3.16-7.7,8.44-8.19a44.56,44.56,0,0,0,8.25-1.27c16.82-4.86,26.88-16.5,30.29-33.16s-2.58-30.32-16.26-40.5c-5.53-4.11-6.52-7-3.63-12.86,8.24-16.64,5.5-31.94-5.57-46.15-13.59-17.46-37.85-19.52-54.31-4.82-9.76,8.71-14.54,19.68-15.26,32.62a7.82,7.82,0,0,1-8.36,7.78c-4.33-.19-7.46-3.51-7.59-8.16a52.77,52.77,0,0,1,.71-9.13c4-27.09,28.79-50.64,57.79-49.06,5.35.29,5.53.18,4.73-5.28C304,63.89,288.75,52.27,272.45,53.77c-7.59.7-13.89,3.9-19.62,8.78-4.29,3.65-9,3.38-12-.18s-2.34-8.41,1.8-12.26A49.13,49.13,0,0,1,267.16,38c-9.64-16.5-31-23.56-47.13-15.39C204.82,30.28,196,43,195.41,59.94,194.64,81.09,195.22,102.29,195.22,123.78Z"/>
        <path class="a3cb5729-018d-44c5-a095-1400a2f06931" d="M113.85,199.21c-11.14-2.26-20.91-6.79-29-14.51-11.4-10.9-17.49-24.21-17.71-40-.07-5.21,3.11-8.7,7.72-8.84s7.9,3,8.27,8.32C84.42,162.57,93.3,175.44,111,181.5c13,4.46,25.12,2.16,36.17-5.95,1.91-1.41,3.64-3.17,6-3.7a8,8,0,0,1,7.06,13.91,55.72,55.72,0,0,1-15.45,9.71c-3.55,1.47-7.19,2.94-11,3.27-2.89.24-3.65,1.74-4.31,4.13-4.55,16.39-19.81,28.4-36.55,28.9-5.81.17-9.55-2.73-9.77-7.57s2.89-7.92,8.57-8.44C102.37,214.78,109.78,209.53,113.85,199.21Z"/>
        <path class="a3cb5729-018d-44c5-a095-1400a2f06931" d="M131.2,371.34a8,8,0,0,1-4.49,8.38,7.42,7.42,0,0,1-8.26-.7c-2.64-1.89-3.16-4.6-3.42-7.65-1.56-17.86-10.2-30.91-26.69-38.41a36.93,36.93,0,0,0-12.77-2.74c-5.27-.38-8.49-3.5-8.42-8.16s3.62-7.83,9.1-7.86c21.16-.09,42.86,15.59,50.84,36.76A60.54,60.54,0,0,1,131.2,371.34Z"/>
        <path class="a3cb5729-018d-44c5-a095-1400a2f06931" d="M136.61,250.07a26.84,26.84,0,0,1,5.11.58A7.87,7.87,0,0,1,147.1,259a7.77,7.77,0,0,1-7.36,7.12c-8.25.6-16.36,1.73-23.94,5.32a55.73,55.73,0,0,0-23.9,21,29.76,29.76,0,0,1-1.83,2.61c-3,3.72-7.28,4.6-10.91,2.27a8,8,0,0,1-2.42-11.2c10.81-17.95,26.33-29.55,46.82-34.29A69.53,69.53,0,0,1,136.61,250.07Z"/>
        <path class="a3cb5729-018d-44c5-a095-1400a2f06931" d="M155.13,77.41a8,8,0,1,1-8.07-8A7.94,7.94,0,0,1,155.13,77.41Z"/>
        <path class="a3cb5729-018d-44c5-a095-1400a2f06931" d="M260.47,199.26c4.15,10.58,11.87,15.75,22.85,16.56,4.25.31,7.2,3,7.74,6.75a8.12,8.12,0,0,1-4.95,8.68,10.12,10.12,0,0,1-4.32.53c-16.66-.3-32.46-12.41-36.91-28.49-.74-2.69-1.59-4.14-4.73-4.68a52.85,52.85,0,0,1-24.88-11.81c-4.53-3.73-5.47-8.21-2.45-12.13,2.82-3.67,7.59-4.18,12-.8,6.8,5.16,14.12,8.55,22.77,9.51,13.93,1.55,30.07-6.26,37.25-18.5a45.08,45.08,0,0,0,6.26-20.71c.29-5.22,3.55-8.47,8.23-8.36s7.71,3.6,7.78,8.8c.37,24.36-18.09,47.77-42.21,53.56C263.52,198.5,262.12,198.85,260.47,199.26Z"/>
        <path class="a3cb5729-018d-44c5-a095-1400a2f06931" d="M243.17,370.07c.41-29.24,26.5-55.88,54.7-55.87,5.53,0,9.1,3,9.26,7.69s-3.09,7.95-8.65,8.35c-21.33,1.52-37.7,18.61-39.27,41a16.2,16.2,0,0,1-.64,4.3,8,8,0,0,1-15.38-2.24C243.09,372.21,243.17,371.14,243.17,370.07Z"/>
        <path class="a3cb5729-018d-44c5-a095-1400a2f06931" d="M241.23,250.34c22.89,1.78,42.68,13.62,56.24,35.68a8.11,8.11,0,0,1-2.2,11.27c-3.69,2.49-8.34,1.73-11.14-2.39-4.83-7.09-10.07-13.65-17.23-18.6-9-6.24-19-9.15-29.79-10-7.05-.54-10.29-3.53-9.94-8.72S231.26,250,241.23,250.34Z"/>
        <path class="a3cb5729-018d-44c5-a095-1400a2f06931" d="M227.07,85.39a8,8,0,1,1,8.06-8A7.94,7.94,0,0,1,227.07,85.39Z"/>
      </g>
    </g>
  </g>
</svg>
