<svg xmlns="http://www.w3.org/2000/svg" viewBox="0 0 379.11 319.46">
  <defs>
    <style>
      .b4ebbbb8-fbe9-42e0-a1cb-d67afabfae0e {
        fill: none;
        stroke-width: 6px;
      }

      .b4ebbbb8-fbe9-42e0-a1cb-d67afabfae0e, .ecc465c6-b540-43d0-8f5e-b0896e90f29b {
        stroke: #fde8e2;
        stroke-miterlimit: 10;
      }

      .ecc465c6-b540-43d0-8f5e-b0896e90f29b {
        fill: #fde8e2;
      }
    </style>
  </defs>
  <g id="e9de5f34-ab79-4aae-8a36-0b8b52c2eb1b" data-name="Layer 2">
    <g id="abeca3e2-b2eb-4d58-9b26-bafea3bb6c9c" data-name="Layer 1">
      <g>
        <path class="b4ebbbb8-fbe9-42e0-a1cb-d67afabfae0e" d="M3,22.86A40.1,40.1,0,0,1,4.65,17C8,9.48,13.67,4.86,21.8,3.34A23.26,23.26,0,0,1,26.12,3Q189.53,3,352.94,3a23,23,0,0,1,21.8,14.79,22.76,22.76,0,0,1,1.37,8q0,107.82,0,215.64a22.41,22.41,0,0,1-17.33,22.19,20.8,20.8,0,0,1-5.09.62H225.35c-1.5,0-1.47,0-1.24,1.47.89,5.77,1.75,11.54,2.66,17.3.42,2.65.78,5.32,1.42,7.92a13.74,13.74,0,0,0,13,10.5c3.05.13,6.11-.19,9.16.18a7.44,7.44,0,0,1-.93,14.81H144.36c-4.9,0-9.8-.09-14.69,0a7.49,7.49,0,1,1,0-15c2.86,0,5.72,0,8.58-.07a13.84,13.84,0,0,0,12.88-11.2c1-5.94,1.9-11.9,2.85-17.86.37-2.3.72-4.61,1.16-6.9.21-1.09-.17-1.23-1.16-1.23q-34.26,0-68.51,0c-19.67,0-39.33,0-59,0-7.21,0-13.24-2.47-18-7.9A21.33,21.33,0,0,1,3.24,245c0-.2,0-.39-.24-.5ZM189.56,204.55H359.71c1.69,0,1.49.17,1.49-1.52q0-44.59,0-89.19,0-43.65,0-87.31a9.31,9.31,0,0,0-1.11-5c-1.72-2.84-4.38-3.61-7.5-3.61Q189.5,18,26.38,18h-.82a7.77,7.77,0,0,0-5.41,2.11C18.36,21.85,18,24,18,26.39q0,88.38,0,176.74c0,1.17.27,1.45,1.45,1.45Q104.48,204.54,189.56,204.55Zm.08,14.92H19.73c-.31,0-.63,0-.94,0-.59-.06-.82.13-.82.77,0,7.44,0,14.88.08,22.32a6.47,6.47,0,0,0,2.83,5.24,8.45,8.45,0,0,0,5.39,1.45q163.32,0,326.65,0h1.18a7,7,0,0,0,4.73-1.95A8.06,8.06,0,0,0,361.2,241c0-6.66,0-13.32,0-20,0-1.57,0-1.57-1.55-1.57Zm26.64,82a32.6,32.6,0,0,1-3.78-11.53c-.69-4.62-1.45-9.22-2.19-13.83-.59-3.68-1.22-7.36-1.79-11.05-.1-.65-.34-.78-1-.78q-18.09,0-36.18,0c-.53,0-.76.05-.85.72-.36,2.69-.85,5.37-1.28,8.06-.74,4.56-1.5,9.13-2.2,13.7-.77,5.06-1.49,10.13-4.29,14.7Z"/>
        <path class="ecc465c6-b540-43d0-8f5e-b0896e90f29b" d="M189.53,226.18a8.23,8.23,0,0,1,8.2,8.27,8.18,8.18,0,1,1-16.35-.2A8.23,8.23,0,0,1,189.53,226.18Z"/>
      </g>
    </g>
  </g>
</svg>
