<svg xmlns="http://www.w3.org/2000/svg" viewBox="0 0 434.84 476.82">
  <defs>
    <style>
      .bc5ccd33-d8b2-478b-b7d5-071e1dfd4cdc {
        fill: none;
        stroke: #fcded0;
        stroke-miterlimit: 10;
        stroke-width: 7px;
      }
    </style>
  </defs>
  <g id="b14d1a24-4447-4d95-b4be-129a936ef85f" data-name="Layer 2">
    <g id="a7f1f607-e11e-4065-b916-df769efb9d43" data-name="Layer 1">
      <path class="bc5ccd33-d8b2-478b-b7d5-071e1dfd4cdc" d="M4,241c0-42.48,1.34-85-.44-127.42C2.26,81.72,16.63,60.8,41.63,44.67c23.28-15,49.06-23.9,75.82-30.12,43.77-10.17,88.17-13,132.89-9.83,43.09,3,85.26,10.6,124.62,29.58,16.31,7.87,31.32,17.56,43,31.75,9.45,11.52,13.52,24.63,13.29,39.64-.39,26.31.13,52.64.12,79,0,25.32-.23,50.65-.26,76-.05,36.32-.59,72.64.2,108.94.49,22.46-8.62,39.42-25.19,53.32-18.37,15.41-39.83,25-62.35,32.29-28.07,9.08-56.95,14-86.35,16.41a465.82,465.82,0,0,1-69.38.81c-46.68-3.2-92.24-11.13-134.3-33-13.65-7.12-26.11-15.94-36.08-27.91A57,57,0,0,1,4,373.41C4.14,329.27,4,285.12,4,241Zm213.85-66.43c18.26-.54,36.69-1.51,55.06-3.89,26.56-3.45,52.64-9,77.76-18.34,17.49-6.54,34.36-14.39,47.62-28.14,14.69-15.24,14.79-32.86.39-48.31-9.36-10-20.92-16.87-33.28-22.4-42.36-19-87.32-25.91-133.21-27.89a401.55,401.55,0,0,0-72.74,3.73C131,33.27,103,39.41,76.34,50.5c-15.27,6.35-29.83,14-41.05,26.61C22.93,91,22.52,106.36,34,120.93a59.53,59.53,0,0,0,9.55,9.49c10.85,8.73,23.1,15,36,20C123.92,167.68,170.36,173.58,217.87,174.54ZM25.57,228.06c0,16.44.37,32.06-.11,47.66-.42,13.53,4.8,24.12,14.57,33,10.74,9.73,23.31,16.41,36.59,21.82,36.82,15,75.42,21.69,114.89,24.19a411.41,411.41,0,0,0,138.22-14.24c21.64-6.06,42.54-13.95,60.66-27.79,12.78-9.77,20.32-21.93,19.3-38.8-.68-11.29-.13-22.65-.13-34V227.94a143.69,143.69,0,0,1-24.21,17.27,201,201,0,0,1-26,12.31c-38.17,14.83-78,21.12-118.68,23.12-44.32,2.17-88.09-1.25-131.11-12.27C79.24,260.61,50.48,249.42,25.57,228.06Zm0,96.33c0,16,.37,31.62-.11,47.18-.43,13.52,4.7,24.14,14.46,33,10.73,9.76,23.29,16.47,36.56,21.88,36.82,15,75.41,21.71,114.89,24.23a412.47,412.47,0,0,0,138.71-14.31c21.63-6.07,42.59-13.95,60.58-28,9.52-7.41,18-16.21,18.5-28.92.76-18.21.19-36.47.19-55.38a148.34,148.34,0,0,1-35.77,23.22c-39.86,18.63-82.34,26.1-125.82,29a450.33,450.33,0,0,1-97.13-3.87C105.62,365.72,62.37,354.28,25.57,324.39Zm0-181.62c0,13.51.18,26.12-.06,38.72-.2,10.95,3.72,20,11.16,27.86,9.33,9.81,20.74,16.56,32.89,22.08,36.28,16.48,74.86,23.64,114.2,26.87a414.79,414.79,0,0,0,134.65-10.8c23.73-5.89,46.75-13.63,67.32-27.37,16.2-10.82,25.88-24.85,24-45.43-.83-8.92-.11-18-.17-27,0-1.4.57-2.93-.7-4.51-12.21,10.78-26,18.85-40.8,25.32-39.32,17.21-80.89,24.35-123.36,26.64-42.18,2.28-84.14-.11-125.44-9.75C85.53,177.56,53.33,166.3,25.57,142.77Z"/>
    </g>
  </g>
</svg>
