<svg xmlns="http://www.w3.org/2000/svg" viewBox="0 0 510.22 506.2">
  <defs>
    <style>
      .afff34a7-7af2-4112-887a-f762536a7972 {
        fill: none;
        stroke: #fcded0;
        stroke-miterlimit: 10;
        stroke-width: 6px;
      }
    </style>
  </defs>
  <g id="a3efb45c-f6e0-4d6d-b2bc-7dfa217b8352" data-name="Layer 2">
    <g id="b88ab228-8f06-4684-9b8c-9beaeaf997c9" data-name="Layer 1">
      <g>
        <path class="afff34a7-7af2-4112-887a-f762536a7972" d="M255.12,147.1q-123.26,0-246.49.11c-4.51,0-5.65-1.07-5.63-5.61Q3.29,74.85,3,8.11C3,4,4,3,8.12,3q247,.18,494,0c4.14,0,5.14.94,5.12,5.1q-.25,67,0,134c0,4.16-1,5.11-5.12,5.11Q378.6,147,255.12,147.1Zm-.24-32q107.75,0,215.49.1c3.91,0,4.87-1,4.84-4.86q-.29-35.5,0-71c0-3.54-.89-4.32-4.36-4.32q-215.74.15-431.48,0c-3.52,0-4.36.85-4.34,4.35.17,23.5.23,47,0,70.49-.05,4.43,1.07,5.36,5.4,5.35Q147.63,115,254.88,115.1Z"/>
        <path class="afff34a7-7af2-4112-887a-f762536a7972" d="M255.11,323.1q-123.24,0-246.49.11c-4.51,0-5.64-1.07-5.62-5.61q.29-66.75,0-133.49C3,180,4,179,8.12,179q247,.18,494,0c4.15,0,5.14.94,5.12,5.1q-.25,67,0,134c0,4.16-1,5.11-5.12,5.11Q378.6,323,255.11,323.1Zm0-32q107.75,0,215.49.1c3.73,0,4.63-.87,4.6-4.61q-.29-35.49,0-71c0-3.76-.9-4.59-4.61-4.59q-215.49.17-431,0c-3.74,0-4.64.87-4.6,4.6q.28,35.25,0,70.5c0,4.17,1,5.1,5.13,5.1Q147.62,291,255.12,291.1Z"/>
        <path class="afff34a7-7af2-4112-887a-f762536a7972" d="M255.62,359.1q123,0,246-.11c4.54,0,5.63,1.11,5.61,5.62q-.27,66.75,0,133.5c0,4.18-1,5.1-5.13,5.09q-247-.18-494,0c-4.16,0-5.12-1-5.1-5.11q.26-67,0-134c0-4.18,1-5.11,5.12-5.1Q131.88,359.21,255.62,359.1Zm-.18,112q107.51,0,215,.07c3.36,0,4.85-.26,4.81-4.4-.26-23.83-.22-47.66,0-71.5,0-3.63-1.07-4.25-4.44-4.24q-215.73.12-431.48,0c-3.61,0-4.28,1-4.26,4.42.16,23.5.24,47-.05,70.5-.06,4.58,1.3,5.28,5.47,5.27Q148,471,255.44,471.1Z"/>
        <path class="afff34a7-7af2-4112-887a-f762536a7972" d="M91.11,75.34c0,4.33-.11,8.67,0,13,.08,2.18-.59,2.84-2.79,2.81q-13.25-.18-26.49,0c-2.18,0-2.85-.59-2.82-2.8q.18-13.23,0-26.48c0-2.18.58-2.85,2.79-2.82q13.24.18,26.49,0c2.17,0,2.89.58,2.81,2.79C91,66.34,91.11,70.85,91.11,75.34Z"/>
        <path class="afff34a7-7af2-4112-887a-f762536a7972" d="M139.54,91.1c-4.33,0-8.67-.08-13,0C124.25,91.2,123,91,123,88c.23-8.66.18-17.32,0-26,0-2.52.85-3,3.14-3,8.66.12,17.33.15,26,0,2.51,0,3,.84,3,3.14-.12,8.66-.14,17.33,0,26,.05,2.51-.83,3.07-3.14,3C147.87,91,143.7,91.1,139.54,91.1Z"/>
        <path class="afff34a7-7af2-4112-887a-f762536a7972" d="M188.1,59.27c6.81-.06,13.62-.14,20.42-.16,8.78,0,10.27,1.17,10.54,9.59.22,7.13-.06,14.28-.11,21.42l-.83.82c-8.31,0-16.61.13-24.92.15-4,0-6.36-1.37-6.17-6.08.35-8.3.19-16.62.25-24.92Z"/>
        <path class="afff34a7-7af2-4112-887a-f762536a7972" d="M188.1,59.27l-.82.82C187.12,59.38,187.4,59.11,188.1,59.27Z"/>
        <path class="afff34a7-7af2-4112-887a-f762536a7972" d="M218.12,90.94l.83-.82C219.1,90.82,218.83,91.1,218.12,90.94Z"/>
        <path class="afff34a7-7af2-4112-887a-f762536a7972" d="M75.15,231.35c5.14,0,12.1-2,14.94.53,3.26,2.94.86,10,1,15.26s1.86,12.09-.73,14.94c-3,3.25-10,.86-15.27,1s-12.08,1.86-14.93-.73c-3.26-3-.87-10-1-15.27s-1.87-12.07.73-14.94C62.85,228.85,69.9,231.51,75.15,231.35Z"/>
        <path class="afff34a7-7af2-4112-887a-f762536a7972" d="M139.47,263.1c-4.34,0-8.67-.11-13,0-2.43.09-3.5-.38-3.43-3.2.2-8.49.15-17,0-25.49,0-2.43.37-3.5,3.2-3.43,8.49.2,17,.15,25.48,0,2.43,0,3.5.37,3.44,3.2q-.31,12.74,0,25.48c.08,3.07-1.11,3.54-3.73,3.41C147.47,263,143.46,263.1,139.47,263.1Z"/>
        <path class="afff34a7-7af2-4112-887a-f762536a7972" d="M203.6,231.33c5.09.27,11.9-2.5,14.78.78,2.5,2.85.83,9.51.69,14.48-.16,5.43,2.38,12.7-1,15.74-3,2.67-10.13.85-15.44.73-5.09-.12-11.91,2.22-14.77-1-2.51-2.8-.83-9.5-.69-14.47.15-5.42-2.39-12.71,1-15.73C191.14,229.24,198.3,231.33,203.6,231.33Z"/>
        <path class="afff34a7-7af2-4112-887a-f762536a7972" d="M90.88,431.59c-.26,5.08,2.5,11.89-.77,14.78-2.85,2.5-9.51.83-14.48.69-5.43-.16-12.7,2.38-15.74-1-2.68-3-.85-10.13-.73-15.43.11-5.1-2.22-11.91,1-14.78,2.79-2.51,9.5-.83,14.47-.69,5.42.15,12.71-2.39,15.73,1C93,419.12,90.88,426.28,90.88,431.59Z"/>
        <path class="afff34a7-7af2-4112-887a-f762536a7972" d="M155.11,430.7c0,4.33-.09,8.66,0,13,.07,2.34-.22,3.56-3.14,3.49-8.66-.22-17.33-.18-26,0-2.54,0-3-.9-3-3.16.11-8.66.14-17.33,0-26,0-2.55.9-3,3.16-2.95,8.67.11,17.33.14,26,0,2.55-.05,3,.9,3,3.16C155,422.36,155.11,426.53,155.11,430.7Z"/>
        <path class="afff34a7-7af2-4112-887a-f762536a7972" d="M218.88,431.59c-.26,5.08,2.5,11.89-.77,14.78-2.85,2.5-9.51.83-14.48.69-5.43-.16-12.7,2.38-15.74-1-2.68-3-.85-10.13-.73-15.43.11-5.1-2.22-11.91,1-14.78,2.79-2.51,9.5-.83,14.47-.69,5.42.15,12.71-2.39,15.73,1C221,419.12,218.88,426.28,218.88,431.59Z"/>
      </g>
    </g>
  </g>
</svg>
