<svg xmlns="http://www.w3.org/2000/svg" viewBox="0 0 454.12 454.13">
  <defs>
    <style>
      .a33b3a29-7e7e-4906-ac8a-4689c815fe6c {
        fill: none;
        stroke: #fcded0;
        stroke-miterlimit: 10;
        stroke-width: 6px;
      }
    </style>
  </defs>
  <g id="b7ab7296-7016-4af5-96b5-1f0068d047e4" data-name="Layer 2">
    <g id="b10aa2c1-bd98-4c0e-a61f-bd4e6a001978" data-name="Layer 1">
      <g>
        <path class="a33b3a29-7e7e-4906-ac8a-4689c815fe6c" d="M379.39,3.08q30.74,0,61.47,0c7.63,0,10.19,2.53,10.19,10.1q0,62,.07,124a12,12,0,0,1-3.86,9.25Q424.37,169.09,401.72,192a9.6,9.6,0,0,1-7.49,3.12c-11.66-.13-23.32.11-35-.15-3.64-.08-4.29,1.07-4.27,4.45.14,27.49,0,55,.11,82.46,0,3.87-1.12,6.86-4.78,8.51a7.69,7.69,0,0,1-8.41-1.14c-2.63-2.08-2.88-5-2.88-8.11.06-27-.06-54,.13-81,0-4-.7-5.28-5-5.23-22,.26-44,.13-66,.11-6.44,0-9.08-2.62-9.09-9,0-22.16-.11-44.32.09-66.47,0-3.74-.88-4.64-4.62-4.62-27.15.18-54.31.1-81.46.09-6.51,0-9.89-2.66-10-7.78-.12-5.36,3.35-8.21,10.09-8.21,27,0,54-.12,81,.11,4.3,0,5.14-1.19,5-5.22-.3-11.32,0-22.65-.16-34a9.6,9.6,0,0,1,3.06-7.51Q284.78,30,307.31,7.27A13.56,13.56,0,0,1,317.91,3C338.4,3.17,358.89,3.08,379.39,3.08Zm-47.83,64c-17.49,0-35,.08-52.48-.08-3.25,0-4.11.82-4.1,4.09q.18,52,0,104c0,3.25.82,4.11,4.09,4.1q52-.18,104,0c3.25,0,4.11-.82,4.1-4.09q-.18-52,0-104c0-3.25-.82-4.13-4.09-4.1C365.88,67.17,348.72,67.08,331.56,67.08Zm-45.19-16H389.51a4,4,0,0,0,3.17-1C402.75,40,412.85,30,423.05,19.82c-.74-.42-1-.7-1.25-.7q-50.46,0-100.93-.07a5.06,5.06,0,0,0-3.95,1.56C307.07,30.51,297.15,40.34,286.37,51.08ZM435.05,30.46c-10.24,10.27-19.64,19.83-29.23,29.2a8.71,8.71,0,0,0-2.82,7c.09,32,.05,64,.09,95.93,0,1.37-.65,2.93.71,4.33,9.47-9.47,18.79-18.94,28.32-28.21a9.22,9.22,0,0,0,3-7.38c-.1-31.81-.07-63.62-.07-95.44Z"/>
        <path class="a33b3a29-7e7e-4906-ac8a-4689c815fe6c" d="M147.06,167.85l32.45-32.65c1.4-1.41,2.7-3,4.66-3.66,3.71-1.2,7.05-.45,9.35,2.75s2.33,7-.46,10.07-5.82,5.95-8.76,8.9c-12.83,12.86-25.69,25.69-38.44,38.62a10.1,10.1,0,0,1-7.93,3.26c-11.16-.16-22.33.13-33.49-.16-4.13-.11-5.57.61-5.52,5.26.28,27.16.15,54.32.13,81.48,0,5.94-2.94,9.32-7.94,9.35s-8-3.35-8-9.24c0-27-.16-54,.11-81,0-4.83-1.09-6-5.9-5.9-21.66.3-43.32.14-65,.12-6.7,0-9.23-2.57-9.23-9.36Q3,123,3,60.24a10.26,10.26,0,0,1,3.23-8Q29,29.8,51.52,7.1A12.55,12.55,0,0,1,61.18,3c41.32.11,82.64.06,124,.07,7.26,0,9.89,2.63,9.9,9.89q0,30.24,0,60.49c0,6.32-2.94,9.72-8.18,9.61-5-.1-7.8-3.46-7.81-9.49,0-14,0-27.93,0-43.66-2.51,2.77-4,4.59-5.71,6.28q-13,13.14-26.08,26.23c-.07,12.48-.18,25-.19,37.45C147,122,147.06,144.2,147.06,167.85Zm-16-44.26c0-17.49-.08-35,.08-52.48,0-3.24-.8-4.12-4.08-4.11q-52,.19-104,0c-3.23,0-4.12.8-4.11,4.08q.18,52,0,104c0,3.24.8,4.12,4.08,4.11q52-.18,104,0c3.24,0,4.15-.79,4.11-4.08C131,157.91,131.05,140.75,131.05,123.59ZM30.5,51.08c35.14,0,69.09,0,103,0a4.05,4.05,0,0,0,3.17-1C146.78,40,156.9,30,167.14,19.84c-.85-.46-1.11-.72-1.37-.72q-50.46,0-100.93-.07a5,5,0,0,0-3.94,1.59C51.08,30.55,41.19,40.39,30.5,51.08Z"/>
        <path class="a33b3a29-7e7e-4906-ac8a-4689c815fe6c" d="M286.42,307.08c35.07,0,68.88,0,102.68.05a6.12,6.12,0,0,0,4.7-2.19q14.49-14.49,29.07-29c-1.25-1.65-2.86-.85-4.19-.86-12.66-.07-25.32,0-38-.05-6.31,0-9.73-2.94-9.63-8.16.09-5,3.46-7.82,9.47-7.83q30.5,0,61,0c6.85,0,9.54,2.77,9.54,9.76q0,62.24.06,124.47a11.54,11.54,0,0,1-3.62,8.85q-23.06,22.9-45.92,46a9.17,9.17,0,0,1-7,3q-63.5-.09-127-.06c-5.73,0-8.49-2.79-8.49-8.58,0-22.16-.16-44.33.1-66.48.06-4.35-1.27-5.05-5.24-5-27.16.19-54.32.11-81.48.09-5.74,0-9.08-2.69-9.38-7.41-.34-5.22,3.17-8.57,9.2-8.57,26.83,0,53.66-.16,80.48.12,5.13.05,6.66-1.13,6.44-6.38-.45-11-.07-22-.18-33a9.11,9.11,0,0,1,2.8-7.11q23.43-23.24,46.72-46.59c3.05-3.05,6.4-4.15,10.34-2.1,3.34,1.74,4.54,4.7,4.12,8.36-.29,2.48-1.95,4.13-3.61,5.79C308.66,284.87,298,295.55,286.42,307.08Zm44.63,16c-17.33,0-34.65.09-52-.08-3.27,0-4.1.85-4.09,4.1q.18,52,0,104c0,3.27.85,4.1,4.1,4.09q52-.18,104,0c3.27,0,4.1-.85,4.09-4.1q-.18-52,0-104c0-3.27-.85-4.12-4.1-4.09C365.7,323.17,348.38,323.08,331.05,323.08Zm72,100.68c10.27-10.32,19.65-19.89,29.22-29.27a8.72,8.72,0,0,0,2.83-6.95c-.09-32-.05-64-.09-95.93,0-1.37.64-2.93-.71-4.35-9.46,9.46-18.79,18.94-28.31,28.21a9.22,9.22,0,0,0-3,7.38c.11,31.81.07,63.62.07,95.43Z"/>
        <path class="a33b3a29-7e7e-4906-ac8a-4689c815fe6c" d="M147.06,423.72c11.5-11.52,22.17-22.21,32.83-32.92,1.41-1.42,2.8-3,4.79-3.44,3.75-.92,7,0,9.14,3.38s1.89,6.76-.79,9.67c-3.38,3.67-7,7.12-10.54,10.66-12.23,12.27-24.5,24.52-36.68,36.84a9.68,9.68,0,0,1-7.44,3.22q-63.25-.12-126.5-.06c-6.09,0-8.8-2.71-8.81-8.78Q3,379,3,315.79a9.21,9.21,0,0,1,2.84-7.09q23.24-23.07,46.38-46.24c4.41-4.38,9.69-4.55,13-.55,2.94,3.55,2.42,7.94-1.58,12Q48.16,289.47,32.57,305c-.44.43-.83.91-1.89,2.09h5c31.84,0,63.67-.05,95.5.07a9.88,9.88,0,0,0,7.77-3.3c9.21-9.38,18.61-18.57,28-27.88-1.43-1.55-3-.84-4.37-.85-12.83-.07-25.66,0-38.49-.06-5.6,0-8.91-2.94-9-7.76-.13-5.07,3.25-8.2,9.08-8.21q31-.06,62,0c6,0,8.89,2.91,8.9,8.87q.06,31,0,62c0,5.86-3.1,9.22-8.17,9.11-4.82-.1-7.78-3.42-7.8-9,0-14.13,0-28.26,0-44.05-3,3.17-5,5.44-7.14,7.6q-12.3,12.44-24.66,24.81c-.06,11.82-.17,23.65-.18,35.47C147,376.73,147.06,399.56,147.06,423.72ZM75.57,323.08c-17.49,0-35,.08-52.48-.08-3.24,0-4.12.8-4.11,4.08q.18,52,0,104c0,3.23.79,4.12,4.08,4.11q52-.18,104,0c3.23,0,4.12-.79,4.11-4.08q-.18-52,0-104c0-3.23-.79-4.14-4.08-4.11C109.89,323.17,92.73,323.08,75.57,323.08Z"/>
        <path class="a33b3a29-7e7e-4906-ac8a-4689c815fe6c" d="M331.56,67.08c17.16,0,34.32.09,51.48-.08,3.27,0,4.1.85,4.09,4.1q-.18,52,0,104c0,3.27-.85,4.1-4.1,4.09q-52-.18-104,0c-3.27,0-4.1-.85-4.09-4.1q.18-52,0-104c0-3.27.85-4.12,4.1-4.09C296.57,67.16,314.07,67.08,331.56,67.08Z"/>
        <path class="a33b3a29-7e7e-4906-ac8a-4689c815fe6c" d="M286.37,51.08c10.78-10.74,20.7-20.57,30.55-30.47a5.06,5.06,0,0,1,3.95-1.56q50.46.07,100.93.07c.25,0,.51.28,1.25.7C412.85,30,402.75,40,392.68,50.06a4,4,0,0,1-3.17,1Z"/>
        <path class="a33b3a29-7e7e-4906-ac8a-4689c815fe6c" d="M435.05,30.46v5.38c0,31.82,0,63.63.07,95.44a9.22,9.22,0,0,1-3,7.38c-9.53,9.27-18.85,18.74-28.32,28.21-1.36-1.4-.71-3-.71-4.33,0-32,0-63.95-.09-95.93a8.71,8.71,0,0,1,2.82-7C415.41,50.29,424.81,40.73,435.05,30.46Z"/>
        <path class="a33b3a29-7e7e-4906-ac8a-4689c815fe6c" d="M131.05,123.59c0,17.16-.09,34.32.08,51.48,0,3.29-.87,4.09-4.11,4.08q-52-.18-104,0c-3.28,0-4.09-.87-4.08-4.11q.18-52,0-104c0-3.28.88-4.09,4.11-4.08q52,.18,104,0c3.28,0,4.11.87,4.08,4.11C131,88.6,131.05,106.1,131.05,123.59Z"/>
        <path class="a33b3a29-7e7e-4906-ac8a-4689c815fe6c" d="M30.5,51.08C41.19,40.39,51.08,30.55,60.9,20.64a5,5,0,0,1,3.94-1.59q50.47.07,100.93.07c.26,0,.52.26,1.37.72C156.9,30,146.78,40,136.7,50.05a4.05,4.05,0,0,1-3.17,1C99.59,51.07,65.64,51.08,30.5,51.08Z"/>
        <path class="a33b3a29-7e7e-4906-ac8a-4689c815fe6c" d="M331.05,323.08c17.33,0,34.65.09,52-.08,3.25,0,4.11.82,4.1,4.09q-.18,52,0,104c0,3.25-.82,4.11-4.09,4.1q-52-.18-104,0c-3.25,0-4.11-.82-4.1-4.09q.18-52,0-104c0-3.25.82-4.13,4.09-4.1C296.4,323.17,313.72,323.08,331.05,323.08Z"/>
        <path class="a33b3a29-7e7e-4906-ac8a-4689c815fe6c" d="M403.06,423.76v-5.48c0-31.81,0-63.62-.07-95.43a9.22,9.22,0,0,1,3-7.38c9.52-9.27,18.85-18.75,28.31-28.21,1.35,1.42.71,3,.71,4.35,0,32,0,63.95.09,95.93a8.72,8.72,0,0,1-2.83,6.95C422.71,403.87,413.33,413.44,403.06,423.76Z"/>
        <path class="a33b3a29-7e7e-4906-ac8a-4689c815fe6c" d="M75.57,323.08c17.16,0,34.32.09,51.48-.08,3.29,0,4.09.88,4.08,4.11q-.18,52,0,104c0,3.29-.88,4.09-4.11,4.08q-52-.18-104,0c-3.29,0-4.09-.88-4.08-4.11q.18-52,0-104c0-3.28.87-4.11,4.11-4.08C40.58,323.16,58.08,323.08,75.57,323.08Z"/>
      </g>
    </g>
  </g>
</svg>
