<svg xmlns="http://www.w3.org/2000/svg" viewBox="0 0 518 454.02">
  <defs>
    <style>
      .a8b3f842-ad23-4bb4-9880-51dea53c30b0 {
        fill: none;
        stroke: #fcded0;
        stroke-miterlimit: 10;
        stroke-width: 6px;
      }
    </style>
  </defs>
  <g id="a1dd1cf5-cc7f-4f60-a2b9-ded055e05567" data-name="Layer 2">
    <g id="ea8334b5-869e-4b76-ae1e-b83c45fa7973" data-name="Layer 1">
      <g>
        <path class="a8b3f842-ad23-4bb4-9880-51dea53c30b0" d="M515,392c-4.64,8.86-12,11.34-21.79,11.17-28.48-.48-57-.08-85.47-.27-4,0-4.91,1.11-4.83,4.93C403.14,419,403,419,414.39,419c6.83,0,13.66-.06,20.49,0,9.31.11,16.16,7,16.12,16.08S444.06,451,434.68,451q-47.73.07-95.47,0c-9.35,0-16.21-6.92-16.2-16s6.87-15.89,16.23-16,19-.11,28.49,0c2.64,0,3.28-.77,3.34-3.35.31-12.71.4-12.71-12.41-12.71h-82c-11.33,0-17.67-6.29-17.67-17.54q0-70.48,0-141c0-11.24,6.35-17.49,17.72-17.49,72.65,0,145.3.11,217.94-.14,9.75,0,16.61,3,20.33,12.13ZM387.51,259c-30.66,0-61.31.07-92-.09-3.72,0-4.66.85-4.64,4.61q.24,51.48,0,103c0,3.75.91,4.62,4.63,4.61q91.45-.19,182.92,0c3.72,0,4.66-.85,4.64-4.61q-.24-51.48,0-103c0-3.75-.91-4.64-4.63-4.62C448.15,259.08,417.83,259,387.51,259Z"/>
        <path class="a8b3f842-ad23-4bb4-9880-51dea53c30b0" d="M131.22,3h110C252.82,3,259,9.24,259,20.93q0,70,0,140c0,12-6.13,18.08-18.14,18.08-29.83,0-59.66.06-89.5-.08-3.38,0-4.5.65-4.46,4.29.16,11.79,0,11.79,11.87,11.79,6.66,0,13.33-.06,20,0,9.36.1,16.23,6.9,16.23,16s-6.85,16-16.21,16q-47.74.09-95.49,0C73.9,227,67,220.14,67,211.07s6.83-16,16.16-16c9.5-.08,19-.1,28.49,0,2.54,0,3.35-.57,3.42-3.28.33-12.78.43-12.78-12.36-12.78h-82C9.36,179,3,172.74,3,161.5Q3,91,3,20.51C3,9.27,9.36,3,20.72,3Q76,3,131.22,3Zm.31,32c-30.65,0-61.31.07-92-.09-3.67,0-4.68.78-4.66,4.59q.24,51.48,0,103c0,3.71.84,4.65,4.61,4.65q91.45-.21,182.92,0c3.67,0,4.68-.78,4.66-4.58q-.25-51.48,0-103c0-3.7-.83-4.67-4.61-4.64C192.17,35.08,161.85,35,131.53,35Z"/>
        <path class="a8b3f842-ad23-4bb4-9880-51dea53c30b0" d="M91,313c-7.78,5.18-14.78,9.88-21.83,14.51-8.8,5.79-18.42,4.24-23.64-3.77-5.08-7.78-2.78-17.13,5.74-22.87q23.17-15.6,46.42-31.1c6-4,12.32-4.17,18.22-.3q24.19,15.86,48,32.25a15.77,15.77,0,0,1,4.55,22c-4.88,7.5-14.49,9.52-22.38,4.61-3.81-2.37-7.49-5-11.23-7.43L123,313v29c0,5.66.19,11.33-.08,17-.16,3.28.83,4.14,4.1,4.12q38-.21,75.95-.05a16,16,0,0,1,4.54,31.32,19.52,19.52,0,0,1-5.4.63q-47,0-93.93,0C97.52,395,91,388.56,91,378,91,356.66,91,335.35,91,313Z"/>
        <path class="a8b3f842-ad23-4bb4-9880-51dea53c30b0" d="M395,141c0-16.34-.09-31.79.07-47.24,0-3.9-2.52-2.72-4.37-2.72-25.15-.05-50.3,0-75.44-.06-11.9,0-19.73-11.62-15-22.23,2.71-6.12,7.56-9.7,14.43-9.72q48.21-.09,96.43,0c9.24,0,15.85,6.87,15.89,16.27.06,20,0,40,0,60V141c8.18-5.44,15.68-10.56,23.32-15.46a15.15,15.15,0,0,1,17-.21c5.57,3.4,8.18,8.6,7.65,15.18a15.41,15.41,0,0,1-7.2,12c-16,10.77-31.94,21.62-48.08,32.18-5.75,3.76-12,3.57-17.79-.28q-23.7-15.71-47.26-31.63c-8.08-5.47-10.08-15.13-4.95-22.69s14.64-9.29,22.86-4C379.79,130.78,386.93,135.63,395,141Z"/>
        <path class="a8b3f842-ad23-4bb4-9880-51dea53c30b0" d="M131.53,35c30.32,0,60.64.08,91-.09,3.78,0,4.62.94,4.61,4.64q-.24,51.48,0,103c0,3.8-1,4.59-4.66,4.58q-91.45-.18-182.92,0c-3.77,0-4.62-.94-4.61-4.65q.24-51.46,0-102.95c0-3.81,1-4.61,4.66-4.59C70.22,35.07,100.88,35,131.53,35Z"/>
      </g>
    </g>
  </g>
</svg>
