<svg xmlns="http://www.w3.org/2000/svg" viewBox="0 0 444.3 497.99">
  <defs>
    <style>
      .a00c4d62-a7e8-4fc4-bcdb-f17cfc393192 {
        fill: none;
        stroke: #fcded0;
        stroke-miterlimit: 10;
        stroke-width: 7px;
      }
    </style>
  </defs>
  <g id="fff62855-aedc-409c-86e7-696e49abd2b2" data-name="Layer 2">
    <g id="bc0d265b-bc99-4ceb-ad9b-1066f04e4a6a" data-name="Layer 1">
      <g>
        <path class="a00c4d62-a7e8-4fc4-bcdb-f17cfc393192" d="M182.45,3.6c53,0,106,.08,159-.1a23.93,23.93,0,0,1,18.53,7.77Q397.09,49.39,434.75,87a19.69,19.69,0,0,1,6.05,14.72c-.05,16.5.05,33,0,49.49-.06,10.91-6.67,17.93-16.52,17.8-9.46-.11-15.73-7.31-15.94-18-.09-4.58,2.06-10.7-.94-13.3-2.59-2.26-8.55-.71-13-.71-21.49,0-43,0-64.47,0-10.77,0-17.46-6.55-17.49-17.35-.07-26.32-.11-52.65.07-79,0-3.88-.93-4.9-4.87-4.89q-133.44.18-266.9,0c-4.09,0-4.79,1.25-4.78,5Q36.09,96,36,151.24c0,11-6.93,18.11-17.06,17.78A15.65,15.65,0,0,1,4.21,157a35.63,35.63,0,0,1-.65-7.44q-.06-63.23,0-126.45C3.54,9.54,9.48,3.6,23,3.6Q102.72,3.59,182.45,3.6Zm162.62,40a2.2,2.2,0,0,0-.25.88c0,19.16.06,38.31-.12,57.46,0,3.55,1.92,3.08,4.08,3.08,18.32,0,36.64,0,55,0,.86,0,2,.59,2.81-1.55Z"/>
        <path class="a00c4d62-a7e8-4fc4-bcdb-f17cfc393192" d="M222.15,494.44H23.66c-14.45,0-20.12-5.73-20.12-20.32,0-17.67-.1-35.34,0-53,.09-11.36,8-18.6,18.39-17.27,8.24,1.06,13.9,7.67,14,16.73.11,12.5.14,25,0,37.5,0,3.22.77,4.14,4.09,4.14q182-.14,364,0c3.21,0,4.23-.74,4.18-4.09-.21-12.5-.14-25-.07-37.5.06-10.15,6.81-17.14,16.23-17,9.16.14,15.8,7.21,15.82,17q.06,28.5,0,57c0,10-6.43,16.53-16.48,16.8-6.49.17-13,0-19.49,0Z"/>
        <path class="a00c4d62-a7e8-4fc4-bcdb-f17cfc393192" d="M163.28,286.55v-65c0-15.07,5.42-20.56,20.28-20.56h78c13.57,0,19.51,5.87,19.51,19.32q0,61.72-.07,123.43c0,3.76.81,6.57,3.68,9.15,4.46,4,8.62,8.33,12.77,12.67,6.5,6.81,6.48,16.42.09,22.8s-16,6.38-22.8-.14c-4.33-4.15-8.62-8.35-12.68-12.75a10.56,10.56,0,0,0-8.64-3.7c-23.15.19-46.31.1-69.46.1-15,0-20.64-5.68-20.64-20.89Zm62.22,53.07c-3.59-4.62-7.91-7.75-8.5-13.32s.67-10.24,4.62-14.13c6.72-6.6,13.54-5.7,26.74,3.52a5.42,5.42,0,0,0,.38-1.35c0-26,0-52,.09-78,0-3.15-1.35-3.39-3.87-3.38-15,.09-30,.21-45-.07-4-.07-4.51,1.38-4.49,4.84.15,21,.07,42,.07,63q0,17.5,0,35c0,1.68-.69,3.91,2.35,3.9C206.85,339.6,215.78,339.62,225.5,339.62Z"/>
        <path class="a00c4d62-a7e8-4fc4-bcdb-f17cfc393192" d="M65.94,201c12.82,0,25.65,0,38.47,0,9.51,0,16.77,7.19,16.61,16.21S113.76,233,104.47,233c-19,.05-38,.11-57-.07-3.52,0-4.45.87-4.36,4.38.25,10,.3,20,0,30-.13,4.22.72,5.65,5.34,5.57,18-.32,36-.15,54-.12,12.48,0,18.58,6.21,18.59,18.78q0,30.74,0,61.47c0,12.42-6.36,18.88-18.62,18.89q-37.22,0-74.45,0c-8.26,0-14.68-5.09-16.48-12.62a16.4,16.4,0,0,1,8.15-17.76c3.19-1.73,6.66-1.89,10.17-1.89,18.16,0,36.32-.12,54.47.11,4,.05,4.65-1.38,4.55-4.9-.23-8.32-.27-16.66,0-25,.13-3.81-.8-5.05-4.86-5-18.15.24-36.31.11-54.46.1-12.06,0-18.33-6.36-18.33-18.53q0-34,0-68c0-11,6.42-17.4,17.28-17.42C41,201,53.44,201,65.94,201Z"/>
        <path class="a00c4d62-a7e8-4fc4-bcdb-f17cfc393192" d="M322.19,286.52c0-23.16-.05-46.33,0-69.49,0-7.93,5.83-14.74,13.2-15.9a16.25,16.25,0,0,1,18.11,10.81c.93,2.61.72,5.26.72,7.9,0,38.16.12,76.33-.1,114.49,0,4.59,1.29,5.43,5.54,5.38,18.5-.23,37-.11,55.5-.09,7,0,12.19,3,15.23,9.35,2.87,6,1.92,11.67-2.1,16.82a15.44,15.44,0,0,1-12.59,6.07c-25.83.07-51.66.15-77.49,0-9.45-.06-16-7.2-16-16.81C322.15,332.19,322.19,309.36,322.19,286.52Z"/>
      </g>
    </g>
  </g>
</svg>
