<svg xmlns="http://www.w3.org/2000/svg" viewBox="0 0 447.18 447.16">
  <defs>
    <style>
      .b62058b4-e2df-4c7e-a41f-263cd31abaaa {
        fill: none;
        stroke: #f8bd9e;
        stroke-miterlimit: 10;
        stroke-width: 6px;
      }
    </style>
  </defs>
  <g id="ab413a7a-0760-4971-96fe-0794f6d9534f" data-name="Layer 2">
    <g id="ece3df56-99c6-4987-b505-2d504a543f44" data-name="Layer 1">
      <g>
        <path class="b62058b4-e2df-4c7e-a41f-263cd31abaaa" d="M444.18,356.34c-1.19,3.14-1.14,6.52-1.75,9.77-7,37.35-36.93,67.92-74.29,75.78-2.18.46-4.37.83-6.75,1.29V254.86c0-2.93,0-2.9,2.94-2.37a96.91,96.91,0,0,1,33.53,12.69c.37.23.77.43,1.33.74a117.85,117.85,0,0,0,2.19-12.9,177.64,177.64,0,0,0,.89-36.59c-1.5-18.92-5.54-37.31-13.17-54.69C364.82,106.44,323.47,71,264.82,56.11a166.28,166.28,0,0,0-54-4.4c-38.68,3-73.06,16.75-102.71,41.82-30.16,25.5-49.79,57.62-59,96a173.59,173.59,0,0,0-4.34,51.77,207.92,207.92,0,0,0,2.82,22.94c.25,1.39.51,1.75,1.91.89a96.31,96.31,0,0,1,33.31-12.64c3-.55,3-.59,3,2.51V440.24c0,2.94,0,3-3,2.44A95.72,95.72,0,0,1,36,420.16C19.12,405.29,8.51,386.73,4.58,364.61a94.46,94.46,0,0,1,10.61-63.79,4.57,4.57,0,0,0,.32-4.17,213.84,213.84,0,0,1-12-60.72c-2.74-55.3,12.63-105,46.8-148.57,31.26-39.85,71.83-65.8,121-78.08A205.47,205.47,0,0,1,210.76,3.4c.41,0,.92.16,1.16-.4h23c.24.57.75.37,1.16.39A201.43,201.43,0,0,1,276,9.27q85.95,21.8,134,96.34c19.48,30.18,30.41,63.43,33.46,99.25.2,2.32-.15,4.74.78,7v24.31c-.48.14-.42.54-.44.9a217.23,217.23,0,0,1-12.2,60.19,3.38,3.38,0,0,0,.3,3.12A96,96,0,0,1,443,332.32c.39,2.45.24,5,1.2,7.36Z"/>
        <path class="b62058b4-e2df-4c7e-a41f-263cd31abaaa" d="M99.46,347.57q0-47,0-94c0-2,.45-2.51,2.46-2.48,8.1.13,16.2,0,24.3.05,8.88,0,14.68,5.73,14.68,14.56q0,81.92,0,163.81c0,9-5.78,14.65-14.81,14.65-8.1,0-16.2-.06-24.3.05-1.84,0-2.34-.4-2.34-2.31Q99.52,394.72,99.46,347.57Z"/>
        <path class="b62058b4-e2df-4c7e-a41f-263cd31abaaa" d="M347.79,347.6q0,47,0,94c0,2.12-.61,2.53-2.59,2.5-8.24-.1-16.49,0-24.74,0-8.09,0-14.1-5.89-14.11-14q0-82.47,0-164.93c0-8.19,6-14.06,14.26-14.1s16.65.05,25-.06c1.86,0,2.2.58,2.19,2.28Q347.76,300.47,347.79,347.6Z"/>
      </g>
    </g>
  </g>
</svg>
