<svg xmlns="http://www.w3.org/2000/svg" viewBox="0 0 374.38 299.4">
  <defs>
    <style>
      .a209ea78-d7ce-4335-b99b-610b5088dade {
        fill: none;
        stroke: #5e5657;
        stroke-miterlimit: 10;
        stroke-width: 6px;
      }
    </style>
  </defs>
  <g id="aae73654-7311-4da2-aebb-2e5eb0ab9ad2" data-name="Layer 2">
    <g id="f94ce071-034e-48e5-860f-8693f89bdc21" data-name="Layer 1">
      <g>
        <path class="a209ea78-d7ce-4335-b99b-610b5088dade" d="M3,148.92c5.39-6.63,12.47-11.37,18.93-16.77Q94.59,71.43,167.39,10.87C180,.34,194.37.37,207,11q25,21,50.15,42c.72.6,1.47,1.15,2.24,1.75,1.12-.94.62-2.08.62-3,0-12.58,0-25.17,0-37.75,0-7.88,2.42-10.28,10.24-10.29q19.6,0,39.2,0c6.74,0,9.24,2.56,9.25,9.37,0,29.37,0,58.74-.06,88.1a5.9,5.9,0,0,0,2.42,5.13q22.33,18.38,44.55,36.91c.83.69,1.66,1.38,2.46,2.1,3.82,3.5,4.36,7.38,1.17,11.39q-6.49,8.15-13.41,16c-3.51,4-7.65,4-12,.37q-39.06-32.55-78.1-65.13Q227.57,76,189.36,44.11c-1.65-1.39-2.57-1.6-4.37-.09Q122.41,96.35,59.72,148.54,45.1,160.73,30.45,172.91c-4.75,3.94-8.74,3.68-12.72-1C12.73,166,7.9,159.94,3,154Z"/>
        <path class="a209ea78-d7ce-4335-b99b-610b5088dade" d="M55.51,227.65c0-17.86,0-35.72,0-53.57a6.26,6.26,0,0,1,2.44-5.5q63.41-52.12,126.68-104.43c2-1.63,3.11-1.64,5.08,0q63.27,52.31,126.67,104.45a5.92,5.92,0,0,1,2.47,5.12c-.08,35.59,0,71.18-.06,106.78,0,9.47-6.22,15.8-15.66,15.81-27.92.05-55.84,0-83.77.1-3.07,0-3.12-1.31-3.12-3.62.06-26.84,0-53.69.11-80.53,0-2.92-.57-3.78-3.64-3.74q-25.71.26-51.41,0c-2.76,0-3.31.73-3.3,3.36.11,27,0,53.93.12,80.89,0,2.7-.51,3.65-3.48,3.64-27.68-.13-55.37-.06-83-.09-9.91,0-16-6.21-16-16.17Q55.5,253.89,55.51,227.65Z"/>
      </g>
    </g>
  </g>
</svg>
