<svg xmlns="http://www.w3.org/2000/svg" viewBox="0 0 462.45 492.32">
  <defs>
    <style>
      .f703c463-2d12-4fa4-903e-43a4a8701a04 {
        fill: none;
        stroke: #5e5657;
        stroke-miterlimit: 10;
        stroke-width: 7px;
      }
    </style>
  </defs>
  <g id="fb3e2c18-19e5-4384-9a8b-48caf3b65c50" data-name="Layer 2">
    <g id="a84d7e42-f826-4ae5-8620-f6c524e432a4" data-name="Layer 1">
      <g>
        <path class="f703c463-2d12-4fa4-903e-43a4a8701a04" d="M71.43,448.78c-.06-10.3.23-22.48-.22-34.65a147.48,147.48,0,0,0-1.73-16.49,173.48,173.48,0,0,0-7.91-31.45A195.47,195.47,0,0,0,38.1,320.74a197.36,197.36,0,0,1-25-51.78,206,206,0,0,1-7.27-31.37,217.37,217.37,0,0,1-2-43.18,246,246,0,0,1,3.63-32.48,213.89,213.89,0,0,1,17.47-55,178.5,178.5,0,0,1,31-45.47,172.9,172.9,0,0,1,57.4-40A209.06,209.06,0,0,1,159.57,7.6a252.73,252.73,0,0,1,25.17-3.21,301.92,301.92,0,0,1,30.67-.81c8.64.18,17.26.79,25.86,1.74a246.14,246.14,0,0,1,36.64,6.77,190.14,190.14,0,0,1,35.84,13.46,163.3,163.3,0,0,1,33.38,22c17.95,15.33,31.59,33.91,41.8,55.09a226,226,0,0,1,16.12,46.55A254.46,254.46,0,0,1,410.11,177c.45,3.82,2.6,6.62,4.35,9.67,9.31,16.26,18.72,32.45,28.1,48.67q5.91,10.23,11.82,20.45c3.24,5.61,5.13,11.61,4.42,18.13-1.09,9.89-5.92,17.37-14.94,21.9q-15.9,8-31.84,15.92c-.93.45-.87,1.08-.87,1.84,0,15.49.2,31,0,46.46a81.19,81.19,0,0,1-54.92,75.5,78.72,78.72,0,0,1-20,3.9c-6,.41-12-.15-18-.63-4.1-.34-8.21-.6-12.31-1-1.24-.11-1.46.32-1.46,1.48,0,15.89,0,31.79.06,47.68,0,1.37-.3,1.82-1.75,1.79-5.45-.09-10.9-.08-16.35,0-1.25,0-1.47-.39-1.47-1.54q0-34.38,0-68.77c0-.93,0-1.48,1.25-1.39q12.46,1,24.94,1.8c6.85.45,13.71,1.23,20.56,1.16,17.22-.17,31.88-6.54,43.69-19.2A60.94,60.94,0,0,0,391,368.34a65.87,65.87,0,0,0,.7-10.79c0-18.49,0-37,0-55.48a2.36,2.36,0,0,1,1.59-2.48q20.51-10.15,40.95-20.44c3.77-1.88,5.92-5,5.42-8.32a19.58,19.58,0,0,0-2.84-6.89q-16.14-27.6-32.24-55.22c-4-6.88-8-13.77-12.05-20.64-.92-1.57-.82-3.33-1-5a271.81,271.81,0,0,0-6.21-33.51c-5.52-21.82-13.85-42.41-26.79-61a139.58,139.58,0,0,0-46.07-42A169.4,169.4,0,0,0,265.2,28.88a245.15,245.15,0,0,0-26.82-4.34,299.4,299.4,0,0,0-41.16-1.4,234.63,234.63,0,0,0-28.35,2.6A189.44,189.44,0,0,0,119.13,40,152.4,152.4,0,0,0,53.49,95.69a172.4,172.4,0,0,0-18.93,38.83,201.75,201.75,0,0,0-8.51,34,245,245,0,0,0-2.92,30.14c-.25,6.62-.25,13.24.16,19.84a183.61,183.61,0,0,0,24.93,82c3.4,5.8,7.3,11.27,10.91,16.93A207.23,207.23,0,0,1,79.8,359.54a194,194,0,0,1,8.46,32.12A146.13,146.13,0,0,1,90.49,411c.86,22.3.21,44.61.41,66.92,0,3.21,0,6.42,0,9.63,0,1-.31,1.27-1.29,1.27-5.6-.05-11.21-.06-16.81,0-1.2,0-1.42-.37-1.41-1.47C71.44,475.11,71.43,462.88,71.43,448.78Z"/>
        <path class="f703c463-2d12-4fa4-903e-43a4a8701a04" d="M124.88,82.07l.68.46Q140,93,154.35,103.39a1.91,1.91,0,0,0,2.39.16,61,61,0,0,1,10.69-4.48,1.69,1.69,0,0,0,1.3-1.59c1.35-8.13,2.67-16.27,4-24.4.58-3.49,1.24-7,1.87-10.44a1,1,0,0,1,1.2-1q21.78.06,43.56,0c1,0,1.1.55,1.21,1.15.77,4.23,1.52,8.45,2.24,12.69,1.08,6.33,2.39,12.64,3.08,19,.38,3.46,1.87,5,5,5.84a34.06,34.06,0,0,1,7.74,3.38,1.64,1.64,0,0,0,2-.2c9.59-6.95,19.21-13.87,28.78-20.85.69-.5,1-.47,1.59.11q15.28,15.19,30.62,30.32c.63.62.8,1,.19,1.82-7.11,9.6-13.73,19.55-20.62,29.3a2.19,2.19,0,0,0-.23,2.58,76.13,76.13,0,0,1,4.46,10.91,1.5,1.5,0,0,0,1.38,1.23c6.65,1,13.29,2.15,19.92,3.27,5.38.9,10.76,1.86,16.14,2.74,1,.16.78.76.78,1.34v13.6c0,9.94,0,19.87,0,29.81,0,.94-.11,1.35-1.23,1.49-6.28.82-12.55,1.77-18.82,2.67-5.65.81-11.31,1.64-17,2.43a1.33,1.33,0,0,0-1.17,1,83.17,83.17,0,0,1-4.69,10.94,1.6,1.6,0,0,0,.26,1.91c6.87,9.47,13.69,19,20.59,28.42.72,1,.68,1.49-.18,2.34q-15.14,14.89-30.18,29.89c-.84.84-1.34.66-2.14.11-9.67-6.73-19.38-13.43-29-20.19a2.36,2.36,0,0,0-2.71-.26,78.49,78.49,0,0,1-9,3.81,4.06,4.06,0,0,0-3.15,3.75c-1.55,9.43-3.21,18.84-4.81,28.26-.29,1.69-.49,3.41-.68,5.12-.13,1.2-.43,1.86-2,1.84-10.54-.09-21.09,0-31.63,0-3.72,0-7.44,0-11.16,0-.95,0-1.23-.37-1.36-1.18q-2.91-17.26-5.84-34.54a1.91,1.91,0,0,0-1.38-1.73A71.34,71.34,0,0,1,155.21,271c-.76-.41-1.11.08-1.55.39q-14.43,10.38-28.81,20.81c-.87.63-1.21.43-1.85-.18-10.47-9.92-20.24-20.53-30.56-30.58-.61-.59-.58-.95-.1-1.61q10.44-14.37,20.86-28.76a1.78,1.78,0,0,0,.17-2.18,68,68,0,0,1-4.49-10.68,1.78,1.78,0,0,0-1.68-1.37c-11.37-1.9-22.72-3.87-34.08-5.8-1.17-.2-1.74-.55-1.74-2,.08-14,.06-28,0-42,0-1.07.08-1.6,1.45-1.86,11.75-2.24,23.47-4.63,35.21-7a2,2,0,0,0,1.74-1.49,60.87,60.87,0,0,1,4.34-10.46,2.2,2.2,0,0,0-.23-2.7c-6.73-9.26-13.42-18.55-20.19-27.78-.86-1.17-.92-1.82.15-2.92,9.92-10.17,20.2-20,30.22-30.06C124.35,82.51,124.62,82.3,124.88,82.07Zm1.84,25.63c-.4,0-.58.37-.82.63-2.22,2.31-4.39,4.68-6.71,6.89-.94.9-.8,1.44-.13,2.35,5.83,8,11.6,16,17.44,24a2,2,0,0,1,.11,2.52c-5.35,9.2-10.54,18.5-12,29.28-.2,1.47-1,1.74-2.12,2-10.22,1.92-20.43,3.89-30.65,5.79-.86.16-1,.5-1,1.18,0,2.45,0,4.89,0,7.34,0,1.52-.47,3.45.27,4.44s2.71.7,4.15.95c9,1.55,17.87,3.43,26.91,4.51.81.1,1.17.36,1.33,1.28a64,64,0,0,0,3.78,14c2.36,5.69,5.5,11,8.46,16.35a1.77,1.77,0,0,1-.18,2.23c-5.91,8.22-11.78,16.46-17.7,24.67-.5.68-.53,1,.09,1.59,2.52,2.36,5,4.76,7.47,7.2.57.57.81.36,1.31,0,8.06-5.87,16.16-11.69,24.2-17.59a2.29,2.29,0,0,1,2.94-.19c6,3.44,12,6.94,18.63,9.3a50.64,50.64,0,0,0,10.4,2.55c1.8.24,2.13,1.13,2.3,2.59.27,2.31.6,4.62,1,6.91,1.27,7.32,2.61,14.63,3.85,22,.17,1,.38,1.4,1.47,1.38,3.31-.08,6.63-.07,9.94,0,1,0,1.33-.32,1.48-1.22,1.67-10.18,3.29-20.36,5.21-30.49a1.84,1.84,0,0,1,1.56-1.68,80.42,80.42,0,0,0,8.73-2.37c7.42-2.63,14.3-6.45,21.33-9.92a2.33,2.33,0,0,1,2.83.26c8.18,5.86,16.41,11.66,24.62,17.49.67.47,1.12.62,1.82-.12,2.31-2.44,4.7-4.81,7.13-7.14.71-.67.66-1.07.11-1.83-5.75-7.84-11.42-15.74-17.17-23.57-.95-1.29-1.36-2.34-.23-3.7A15.59,15.59,0,0,0,260.3,227c4.63-8.07,8.86-16.31,10.15-25.68.28-2,.72-3.09,3.16-3.28,4.93-.37,9.83-1.28,14.74-2s9.91-1.43,14.88-2c1-.13,1.07-.57,1.06-1.36,0-3,0-5.91,0-8.87,0-2.39,0-2.35-2.32-2.73-9.73-1.59-19.46-3.25-29.2-4.78a1.91,1.91,0,0,1-1.89-1.79c-2.28-10.72-6.07-20.81-12.63-29.7a1.22,1.22,0,0,1,.06-1.8c6.39-8.31,12-17.18,18.09-25.7a1.23,1.23,0,0,0-.12-1.89q-3.56-3.57-7-7.21c-.46-.48-.77-.63-1.38-.15-1.35,1.06-2.78,2-4.19,3q-10.48,7.52-21,15a1.25,1.25,0,0,1-1.6.1c-1.95-1.15-4-2.22-5.92-3.35-7.57-4.35-15.51-7.74-24.21-9-1.25-.18-1.67-.67-1.77-1.76-.39-4-1.17-8-1.87-12-1.06-6-2.06-11.94-3.11-17.91-.1-.55-.15-1.15-1.07-1.13-3.67.06-7.34,0-11,0a.89.89,0,0,0-1,.83c-.82,4.78-1.63,9.56-2.46,14.33-.93,5.33-2,10.64-2.6,16a1.56,1.56,0,0,1-1.55,1.6,98.72,98.72,0,0,0-11.33,2.59c-6.75,2-12.51,5.73-18.13,9.75a1.57,1.57,0,0,1-2.17,0c-8.54-5.82-16.8-12-25.25-18C127.31,108.06,127.12,107.72,126.72,107.7Z"/>
        <path class="f703c463-2d12-4fa4-903e-43a4a8701a04" d="M126.72,107.7c.4,0,.59.36.87.56,8.45,5.95,16.71,12.15,25.25,18a1.57,1.57,0,0,0,2.17,0c5.62-4,11.38-7.78,18.13-9.75a98.72,98.72,0,0,1,11.33-2.59,1.56,1.56,0,0,0,1.55-1.6c.61-5.37,1.67-10.68,2.6-16,.83-4.77,1.64-9.55,2.46-14.33a.89.89,0,0,1,1-.83c3.67,0,7.34,0,11,0,.92,0,1,.58,1.07,1.13,1.05,6,2.05,11.94,3.11,17.91.7,4,1.48,7.95,1.87,12,.1,1.09.52,1.58,1.77,1.76,8.7,1.24,16.64,4.63,24.21,9,2,1.13,4,2.2,5.92,3.35a1.25,1.25,0,0,0,1.6-.1q10.49-7.55,21-15c1.41-1,2.84-2,4.19-3,.61-.48.92-.33,1.38.15q3.5,3.63,7,7.21a1.23,1.23,0,0,1,.12,1.89c-6.1,8.52-11.7,17.39-18.09,25.7a1.22,1.22,0,0,0-.06,1.8c6.56,8.89,10.35,19,12.63,29.7a1.91,1.91,0,0,0,1.89,1.79c9.74,1.53,19.47,3.19,29.2,4.78,2.31.38,2.32.34,2.32,2.73,0,3,0,5.91,0,8.87,0,.79,0,1.23-1.06,1.36-5,.61-9.92,1.35-14.88,2s-9.81,1.59-14.74,2c-2.44.19-2.88,1.24-3.16,3.28-1.29,9.37-5.52,17.61-10.15,25.68a15.59,15.59,0,0,1-1.36,2.36c-1.13,1.36-.72,2.41.23,3.7,5.75,7.83,11.42,15.73,17.17,23.57.55.76.6,1.16-.11,1.83-2.43,2.33-4.82,4.7-7.13,7.14-.7.74-1.15.59-1.82.12-8.21-5.83-16.44-11.63-24.62-17.49a2.33,2.33,0,0,0-2.83-.26c-7,3.47-13.91,7.29-21.33,9.92a80.42,80.42,0,0,1-8.73,2.37,1.84,1.84,0,0,0-1.56,1.68c-1.92,10.13-3.54,20.31-5.21,30.49-.15.9-.5,1.24-1.48,1.22-3.31-.07-6.63-.08-9.94,0-1.09,0-1.3-.41-1.47-1.38-1.24-7.33-2.58-14.64-3.85-22-.4-2.29-.73-4.6-1-6.91-.17-1.46-.5-2.35-2.3-2.59a50.64,50.64,0,0,1-10.4-2.55c-6.59-2.36-12.59-5.86-18.63-9.3a2.29,2.29,0,0,0-2.94.19c-8,5.9-16.14,11.72-24.2,17.59-.5.36-.74.57-1.31,0-2.44-2.44-5-4.84-7.47-7.2-.62-.58-.59-.91-.09-1.59,5.92-8.21,11.79-16.45,17.7-24.67a1.77,1.77,0,0,0,.18-2.23c-3-5.38-6.1-10.66-8.46-16.35a64,64,0,0,1-3.78-14c-.16-.92-.52-1.18-1.33-1.28-9-1.08-18-3-26.91-4.51-1.44-.25-3.5-.08-4.15-.95s-.26-2.92-.27-4.44c0-2.45,0-4.89,0-7.34,0-.68.09-1,1-1.18,10.22-1.9,20.43-3.87,30.65-5.79,1.16-.22,1.92-.49,2.12-2,1.46-10.78,6.65-20.08,12-29.28a2,2,0,0,0-.11-2.52c-5.84-8-11.61-16-17.44-24-.67-.91-.81-1.45.13-2.35,2.32-2.21,4.49-4.58,6.71-6.89C126.14,108.07,126.32,107.75,126.72,107.7ZM246.1,187.9c.26-26-21.19-48.55-48.45-48.56a48.56,48.56,0,1,0,0,97.11C224.49,236.46,246.37,214.08,246.1,187.9Z"/>
        <path class="f703c463-2d12-4fa4-903e-43a4a8701a04" d="M246.1,187.9c.27,26.18-21.61,48.56-48.47,48.55a48.56,48.56,0,1,1,0-97.11C224.91,139.35,246.36,161.94,246.1,187.9Zm-19.44.18a29.06,29.06,0,1,0-30,28.86A28.93,28.93,0,0,0,226.66,188.08Z"/>
        <path class="f703c463-2d12-4fa4-903e-43a4a8701a04" d="M226.66,188.08a29.06,29.06,0,1,1-27.92-29.24A29.06,29.06,0,0,1,226.66,188.08Z"/>
      </g>
    </g>
  </g>
</svg>
