<svg xmlns="http://www.w3.org/2000/svg" viewBox="0 0 103.65 166.76">
  <defs>
    <style>
      .f8ad49f0-e751-49ea-b370-f39e057d6a5c {
        fill: none;
        stroke: #f8bd9e;
        stroke-miterlimit: 10;
        stroke-width: 5px;
      }

      .baeda722-036e-4d22-84ba-4c450369380b {
        fill: #f8bd9e;
      }
    </style>
  </defs>
  <g id="b7277194-1721-410d-a302-2d50908c5bca" data-name="Layer 2">
    <g id="b8bf4871-61e9-4560-9704-e11c3874cfca" data-name="Layer 1">
      <g>
        <path class="f8ad49f0-e751-49ea-b370-f39e057d6a5c" d="M51.75,135.31c-3.37,0-6.75.09-10.12,0a12.06,12.06,0,0,1-11.38-11.43c-.13-3.25.07-6.51-.18-9.76A40.44,40.44,0,0,0,18.43,88.23a57.61,57.61,0,0,1-11-15A49.08,49.08,0,0,1,18,16.06,48.17,48.17,0,0,1,54,2.54,49.11,49.11,0,0,1,99.88,41c3.71,17.42-.69,32.79-13.19,45.55-5.6,5.72-9.88,12.07-11.91,19.85a45.36,45.36,0,0,0-1.37,11.31c0,2.88.34,5.78-.43,8.63a12,12,0,0,1-11.23,9c-3.33.09-6.67,0-10,0Z"/>
        <path class="baeda722-036e-4d22-84ba-4c450369380b" d="M38.35,148.26H65.3c3.86,0,3.87-6,0-6H38.35c-3.86,0-3.87,6,0,6Z"/>
        <path class="baeda722-036e-4d22-84ba-4c450369380b" d="M33.19,157.39h38.2c3.86,0,3.87-6,0-6H33.19c-3.86,0-3.87,6,0,6Z"/>
        <path class="baeda722-036e-4d22-84ba-4c450369380b" d="M41.79,166.76H61.86c3.86,0,3.87-6,0-6H41.79c-3.86,0-3.87,6,0,6Z"/>
      </g>
    </g>
  </g>
</svg>
