<svg xmlns="http://www.w3.org/2000/svg" viewBox="0 0 213.16 346.67">
  <defs>
    <style>
      .bef392d7-80ca-4e64-80a6-062934618ff7 {
        fill: none;
        stroke: #fde8e2;
        stroke-miterlimit: 10;
        stroke-width: 6px;
      }
    </style>
  </defs>
  <g id="bb12778b-0904-41e9-a203-02ec8ce0e44d" data-name="Layer 2">
    <g id="a17a9a43-a222-4d28-87d6-e329a3f2e8b7" data-name="Layer 1">
      <g>
        <path class="bef392d7-80ca-4e64-80a6-062934618ff7" d="M18,3a46.13,46.13,0,0,0,.84,8.62C20.48,20,26,24.2,33.9,26c7.22,1.61,14.56,1.75,21.91,1.8,7.76,0,15.52,0,23.25.65,6.82.59,13.51,1.81,19.79,4.7C109.35,37.93,115,46.35,117,57.49a54.13,54.13,0,0,1,.8,8.8c0,1-.18,1.44-1.3,1.42q-6.25-.09-12.51,0c-1,0-1.27-.36-1.24-1.31a33.24,33.24,0,0,0-.81-7.57c-1.71-8.13-7.15-12.34-14.89-14.1-7.91-1.8-16-1.75-24-1.88S47,42.93,39,42c-6.34-.78-12.54-2.12-18.27-5.05-10.1-5.15-15.27-13.72-17-24.67A8.69,8.69,0,0,0,3,8.93c0-1.68.05-3.36,0-5,0-.75.15-.9.9-.89C8.59,3,13.28,3,18,3Z"/>
        <path class="bef392d7-80ca-4e64-80a6-062934618ff7" d="M138.41,67.85A63.61,63.61,0,0,1,149,71.31c29.89,12.58,49.48,34.34,58.16,65.69a87,87,0,0,1,3,23.33q0,43.88,0,87.74c-.07,43.41-31.22,82.63-73.46,92.77-12,2.88-24.17,3.26-36.39,2.45a93.29,93.29,0,0,1-55.67-22.75A94.91,94.91,0,0,1,12,264a83.22,83.22,0,0,1-1.43-15c0-30.35-.2-60.7.1-91,.22-21.38,7.59-40.42,20.93-57.06A95.71,95.71,0,0,1,80.84,68.21c.39-.11.78-.22,1.17-.31.1,0,.21,0,.47,0-3.37,10.57-1.77,21.45-2.08,32.21-.16,5.32,0,10.65,0,16q0,14.94,0,29.88c0,10,2.59,19.1,8.89,27a27.88,27.88,0,0,0,14.19,9.8c1.22.35,1.4.94,1.4,2.06q-.06,25.54,0,51.08a5.42,5.42,0,0,0,4.09,5.54,5.5,5.5,0,0,0,6.13-2.48,7.13,7.13,0,0,0,.85-3.84q0-10.69,0-21.38V184.41c0-.6-.18-1.14.75-1.44,11.42-3.54,17.81-11.9,21.52-22.73a41.11,41.11,0,0,0,2.13-13.3q0-32.84,0-65.67a45.39,45.39,0,0,0-1.8-12.15C138.38,68.75,138.08,68.4,138.41,67.85Z"/>
        <path class="bef392d7-80ca-4e64-80a6-062934618ff7" d="M95.36,115.32c0-8.57,1.11-15.54,4.24-22.09a20,20,0,0,1,4.74-6.57c3.92-3.44,8.5-3.38,12.28.23,3.54,3.39,5.46,7.72,6.69,12.34,3.2,12,2.91,23.9-2.12,35.45a19.33,19.33,0,0,1-4.9,6.87c-3.62,3.21-7.91,3.3-11.63.2-3.5-2.93-5.37-6.89-6.79-11.09A47.55,47.55,0,0,1,95.36,115.32Z"/>
      </g>
    </g>
  </g>
</svg>
