<svg xmlns="http://www.w3.org/2000/svg" viewBox="0 0 310.42 310.28">
  <defs>
    <style>
      .b3e96615-8f68-4ae9-9d77-97fb67c7b000 {
        fill: none;
        stroke: #f8bd9e;
        stroke-miterlimit: 10;
        stroke-width: 6px;
      }
    </style>
  </defs>
  <g id="a54a189b-d72a-464d-bfa0-996c80cb98ab" data-name="Layer 2">
    <g id="b501cf3b-f6b9-470c-ae41-96f7283c093e" data-name="Layer 1">
      <g>
        <path class="b3e96615-8f68-4ae9-9d77-97fb67c7b000" d="M3,163.49V146.41c.4-.14.28-.5.3-.78a144.86,144.86,0,0,1,4-26.61c8.22-32.95,25.39-60.37,51.72-81.74C90.82,11.5,127.36.38,168.19,3.52A143.72,143.72,0,0,1,203,10.62a150.62,150.62,0,0,1,70.73,49.16c19.83,24.61,30.84,52.8,33.27,84.3a144.38,144.38,0,0,1-3.44,45C294.23,228,273,258.8,240,281.34a147.82,147.82,0,0,1-72,25.4c-1.71.15-3.47-.09-5.13.54H146.48c-.15-.41-.5-.29-.79-.31a151.43,151.43,0,0,1-87.14-34.43C26,245.24,7.58,210.38,3.54,168,3.39,166.5,3.65,164.94,3,163.49ZM155.24,23.7A131.38,131.38,0,0,0,23.76,155.07c0,72.46,58.75,131.4,131.1,131.44a131.41,131.41,0,1,0,.38-262.81Z"/>
        <path class="b3e96615-8f68-4ae9-9d77-97fb67c7b000" d="M97.11,155.08q0-35.48,0-71c0-5.79,3.55-10,9.18-10.87A10.65,10.65,0,0,1,113.37,75q10.17,5.89,20.35,11.76,50.9,29.39,101.79,58.76c2.76,1.59,4.85,3.66,5.68,6.81,1.23,4.71-.73,9.21-5.21,11.81q-13.77,8-27.57,15.95l-95,55c-3.64,2.11-7.33,2.47-11,.37S97.1,230,97.1,225.87q0-27.94,0-55.89ZM118,208.59l92.48-53.49L118,101.62Z"/>
      </g>
    </g>
  </g>
</svg>
